<?xml version="1.0" encoding="utf-8"?>
<!-- Generator: Adobe Illustrator 17.0.0, SVG Export Plug-In . SVG Version: 6.00 Build 0)  -->
<!DOCTYPE svg PUBLIC "-//W3C//DTD SVG 1.1//EN" "http://www.w3.org/Graphics/SVG/1.1/DTD/svg11.dtd">
<svg version="1.1" id="Layer_1" xmlns="http://www.w3.org/2000/svg" xmlns:xlink="http://www.w3.org/1999/xlink" x="0px" y="0px"
	 width="220px" height="70px" viewBox="0 0 220 70" enable-background="new 0 0 220 70" xml:space="preserve">
<path fill-rule="evenodd" clip-rule="evenodd" fill="#FFFFFF" d="M32.529,22.351c-5.773-3.392-14.164,0.55-14.314-7.444
	c-7.244,11.995-3.563,20.538,5.94,24.286c8.051,3.176,11.901,11.861,7.745,23.689c1.253-1.403,2.429-2.922,3.496-4.555
	C44.333,44.695,43.378,28.687,32.529,22.351z M-0.374,47.105c0,0,6.215,18.372,30.026,15.596c4.485-2.99,2.22-14.635-0.769-17.945
	c-2.99-3.31-5.996-3.616-9.28-6.257c-3.442-2.769-4.337-4.097-5.242-5.489C10.944,44.649-0.374,47.105-0.374,47.105z M35.21,61.498
	c0,0,22.84-7.029,20.678-30.816C54.551,15.969,44.787,9.684,37.531,7.03c-9.476-3.466-16.959,2.684-18.202,5.681
	c-0.857,5.051,3.27,5.351,8.378,5.989c4.239,0.75,7.253,1.488,11.403,7.634C50.443,44.931,35.21,61.498,35.21,61.498z
	 M70.769,11.737v4.707h-3.224v0.887h3.224v12.058c0,1.698,0.304,2.929,0.911,3.692c0.607,0.763,1.496,1.145,2.668,1.145
	c0.365,0,0.693-0.016,0.983-0.048c0.29-0.032,0.57-0.091,0.838-0.177l-0.161-0.79c-0.398,0.054-0.709,0.091-0.935,0.113
	c-0.226,0.022-0.484,0.032-0.774,0.032c-0.795,0-1.435-0.304-1.918-0.911c-0.484-0.607-0.725-1.625-0.725-3.055V17.331h4.288v-0.887
	h-4.288v-4.707H70.769z M80.924,8.738h-0.87V23.94c-0.022,0.151-0.032,0.301-0.032,0.451c0,0.151,0,0.338,0,0.564h0.032v8.931h0.87
	V22.795c0.279-1.698,0.921-3.09,1.926-4.175c1.005-1.085,2.431-1.628,4.28-1.628c1.408,0,2.534,0.47,3.377,1.411
	c0.844,0.941,1.265,2.555,1.265,4.844v10.64h0.887V23.279c0-2.472-0.47-4.283-1.411-5.433c-0.941-1.15-2.319-1.725-4.135-1.725
	c-1.494,0-2.762,0.347-3.804,1.04c-1.043,0.693-1.838,1.663-2.386,2.91V8.738z M99.205,16.444h-0.87v17.443h0.87V16.444z
	 M99.205,8.738h-0.87v2.225h0.87V8.738z M104.928,16.444v7.254c-0.022,0.215-0.035,0.427-0.04,0.637
	c-0.006,0.209-0.008,0.417-0.008,0.621h0.048v8.931h0.87V22.699c0.269-1.677,0.887-3.047,1.854-4.111
	c0.967-1.064,2.364-1.596,4.191-1.596c1.483,0,2.657,0.494,3.522,1.483c0.865,0.989,1.298,2.692,1.298,5.11v10.301h0.87V23.618
	c0-2.601-0.476-4.5-1.427-5.699c-0.951-1.198-2.378-1.797-4.28-1.797c-1.473,0-2.714,0.336-3.724,1.007
	c-1.01,0.672-1.784,1.615-2.321,2.829l-0.113-3.514H104.928z M125.192,33.886V17.331h4.61v-0.887h-4.61v-2.869
	c0-1.343,0.328-2.396,0.983-3.16c0.655-0.763,1.564-1.145,2.724-1.145c0.408,0,0.744,0.019,1.008,0.056
	c0.263,0.038,0.567,0.1,0.911,0.185l0.129-0.838c-0.322-0.097-0.658-0.166-1.008-0.21c-0.349-0.043-0.701-0.064-1.056-0.064
	c-1.44,0-2.561,0.451-3.361,1.354c-0.801,0.903-1.201,2.176-1.201,3.821v2.869h-3.031v0.887h3.031v16.556H125.192z M144.343,30.936
	c0,0.441,0.024,0.852,0.073,1.233c0.048,0.382,0.142,0.954,0.282,1.717h0.967c-0.161-0.57-0.277-1.145-0.347-1.725
	c-0.07-0.58-0.105-1.177-0.105-1.789v-8.737c0-1.784-0.564-3.149-1.693-4.095c-1.129-0.946-2.628-1.419-4.498-1.419
	c-1.838,0-3.316,0.47-4.433,1.411c-1.118,0.941-1.644,2.088-1.58,3.442l0.032,0.081l0.725,0.032c0-1.203,0.481-2.187,1.443-2.95
	c0.962-0.763,2.233-1.145,3.813-1.145c1.687,0,2.996,0.406,3.925,1.217c0.93,0.812,1.394,1.943,1.394,3.393v2.547h-4.981
	c-2.074,0-3.802,0.494-5.183,1.483c-1.381,0.989-2.071,2.214-2.071,3.675c0,1.505,0.462,2.7,1.386,3.587
	c0.924,0.887,2.198,1.33,3.821,1.33c1.698,0,3.143-0.331,4.336-0.991c1.193-0.661,2.09-1.518,2.692-2.571V30.936z M134.163,32.25
	c-0.79-0.747-1.185-1.706-1.185-2.878c0-1.225,0.621-2.254,1.862-3.087c1.241-0.833,2.765-1.249,4.57-1.249h4.933v3.917
	c-0.559,1.419-1.437,2.51-2.636,3.272c-1.198,0.763-2.663,1.145-4.393,1.145C136.003,33.371,134.953,32.997,134.163,32.25z
	 M152.065,31.17c-1.053-1.456-1.58-3.345-1.58-5.666v-0.677c0-2.3,0.526-4.181,1.58-5.642c1.053-1.461,2.601-2.192,4.643-2.192
	c1.558,0,2.886,0.454,3.982,1.362c1.096,0.908,1.644,2.217,1.644,3.925h0.742l0.032-0.097c0.043-1.924-0.562-3.415-1.814-4.473
	c-1.252-1.058-2.781-1.588-4.586-1.588c-2.214,0-3.95,0.801-5.207,2.402c-1.257,1.602-1.886,3.702-1.886,6.303v0.677
	c0,2.611,0.631,4.718,1.894,6.319c1.263,1.601,3.006,2.402,5.231,2.402c1.698,0,3.194-0.508,4.49-1.523
	c1.295-1.016,1.921-2.378,1.878-4.087l-0.032-0.097h-0.742c0,1.612-0.564,2.821-1.693,3.627c-1.129,0.806-2.429,1.209-3.901,1.209
	C154.676,33.354,153.118,32.626,152.065,31.17z M168.492,11.737v4.707h-3.224v0.887h3.224v12.058c0,1.698,0.304,2.929,0.911,3.692
	c0.607,0.763,1.496,1.145,2.668,1.145c0.365,0,0.693-0.016,0.983-0.048c0.29-0.032,0.569-0.091,0.838-0.177l-0.161-0.79
	c-0.398,0.054-0.709,0.091-0.935,0.113c-0.226,0.022-0.484,0.032-0.774,0.032c-0.795,0-1.435-0.304-1.918-0.911
	c-0.484-0.607-0.725-1.625-0.725-3.055V17.331h4.288v-0.887h-4.288v-4.707H168.492z M176.407,25.504
	c0,2.569,0.709,4.664,2.128,6.287c1.419,1.623,3.262,2.434,5.529,2.434c2.246,0,4.076-0.811,5.489-2.434
	c1.413-1.623,2.12-3.718,2.12-6.287v-0.677c0-2.558-0.707-4.648-2.12-6.271c-1.413-1.623-3.254-2.434-5.521-2.434
	c-2.257,0-4.092,0.812-5.505,2.434c-1.413,1.623-2.12,3.713-2.12,6.271V25.504z M177.277,24.827c0-2.138,0.613-3.979,1.838-5.521
	c1.225-1.542,2.864-2.313,4.917-2.313c2.042,0,3.681,0.771,4.917,2.313c1.236,1.542,1.854,3.383,1.854,5.521v0.677
	c0,2.182-0.613,4.036-1.838,5.562c-1.225,1.526-2.859,2.289-4.901,2.289c-2.074,0-3.724-0.76-4.949-2.281
	c-1.225-1.521-1.838-3.377-1.838-5.57V24.827z M203.634,16.299c-0.151-0.043-0.33-0.083-0.54-0.121
	c-0.21-0.038-0.438-0.056-0.685-0.056c-1.397,0-2.574,0.347-3.53,1.04c-0.957,0.693-1.677,1.663-2.16,2.91v-0.596l-0.161-3.031
	h-0.709v17.443h0.871V22.457c0.29-1.644,0.921-2.969,1.894-3.974c0.972-1.005,2.238-1.507,3.796-1.507l1.129,0.097L203.634,16.299z
	 M206.053,16.444h-0.951l6.948,17.346l-1.048,2.837c-0.43,1.139-0.922,1.999-1.475,2.579c-0.554,0.58-1.325,0.87-2.313,0.87
	c-0.129,0-0.312-0.016-0.548-0.048c-0.237-0.032-0.414-0.064-0.532-0.097l-0.145,0.822c0.118,0.043,0.301,0.083,0.548,0.121
	c0.247,0.038,0.473,0.056,0.677,0.056c1.376,0,2.378-0.384,3.006-1.153c0.629-0.769,1.179-1.765,1.652-2.99l7.754-20.344h-0.967
	L212.63,32.21l-0.097,0.258h-0.097l-0.645-1.741L206.053,16.444z M74.398,52.224c0-1.322-0.279-2.374-0.837-3.153
	c-0.558-0.78-1.329-1.169-2.312-1.169c-0.648,0-1.212,0.145-1.69,0.436c-0.479,0.291-0.857,0.688-1.135,1.193l-0.085-1.474h-0.324
	v2.54c-0.01,0.031-0.015,0.048-0.015,0.05c0,0.003,0,0.007,0,0.012v3.397c0,0.01,0.001,0.021,0.004,0.031
	c0.003,0.01,0.006,0.023,0.012,0.039v5.496h0.417v-4.485c0.278,0.443,0.657,0.793,1.139,1.05c0.481,0.257,1.046,0.386,1.694,0.386
	c0.978,0,1.745-0.376,2.3-1.127c0.556-0.751,0.834-1.77,0.834-3.057V52.224z M73.973,52.386c0,1.153-0.23,2.069-0.691,2.748
	c-0.461,0.679-1.131,1.019-2.011,1.019c-0.726,0-1.328-0.161-1.806-0.483c-0.479-0.322-0.823-0.755-1.034-1.301v-3.991
	c0.201-0.581,0.524-1.07,0.969-1.467c0.445-0.396,1.064-0.594,1.856-0.594c0.88,0,1.553,0.362,2.019,1.084
	c0.466,0.723,0.699,1.664,0.699,2.821V52.386z M76.011,52.394c0,1.23,0.34,2.234,1.019,3.01c0.679,0.777,1.562,1.166,2.648,1.166
	c1.075,0,1.952-0.388,2.628-1.166c0.677-0.777,1.015-1.781,1.015-3.01v-0.324c0-1.225-0.338-2.226-1.015-3.003
	c-0.677-0.777-1.558-1.166-2.644-1.166c-1.081,0-1.959,0.389-2.636,1.166c-0.677,0.777-1.015,1.778-1.015,3.003V52.394z
	 M76.428,52.069c0-1.024,0.293-1.905,0.88-2.644c0.587-0.738,1.371-1.108,2.354-1.108c0.978,0,1.763,0.369,2.354,1.108
	c0.592,0.738,0.888,1.62,0.888,2.644v0.324c0,1.045-0.293,1.932-0.88,2.663c-0.587,0.731-1.369,1.096-2.347,1.096
	c-0.993,0-1.783-0.364-2.37-1.092c-0.587-0.728-0.88-1.617-0.88-2.667V52.069z M85.112,48.055h-0.479l2.424,8.352h0.417l2.061-6.276
	l0.363-1.297h0.046l0.347,1.297l2.092,6.276h0.417l2.432-8.352h-0.486l-1.698,5.936L92.6,55.705l-0.046,0.008l-0.54-1.721
	l-1.868-5.936h-0.425l-1.876,5.936l-0.548,1.721l-0.046-0.008l-0.432-1.714L85.112,48.055z M101.863,56.257
	c0.463-0.208,0.841-0.475,1.135-0.799l-0.224-0.324c-0.288,0.309-0.663,0.556-1.123,0.741c-0.461,0.185-0.941,0.278-1.44,0.278
	c-0.906,0-1.647-0.346-2.223-1.038c-0.576-0.692-0.865-1.548-0.865-2.567v-0.494v-0.1h6.168v-0.641c0-1.055-0.275-1.887-0.826-2.497
	c-0.551-0.61-1.289-0.915-2.215-0.915c-1.019,0-1.864,0.39-2.536,1.169c-0.672,0.78-1.007,1.774-1.007,2.984v0.494
	c0,1.158,0.338,2.118,1.015,2.879c0.677,0.762,1.506,1.142,2.489,1.142C100.849,56.57,101.4,56.465,101.863,56.257z M102.172,49.155
	c0.468,0.558,0.703,1.267,0.703,2.127v0.255h-5.666l-0.023-0.046c0.072-0.916,0.385-1.674,0.938-2.273
	c0.553-0.599,1.262-0.899,2.127-0.899C101.063,48.318,101.703,48.597,102.172,49.155z M109.034,47.986
	c-0.072-0.021-0.158-0.04-0.259-0.058c-0.1-0.018-0.21-0.027-0.328-0.027c-0.669,0-1.233,0.166-1.69,0.498
	c-0.458,0.332-0.803,0.796-1.034,1.393v-0.286l-0.077-1.451h-0.34v8.352h0.417v-5.473c0.139-0.787,0.441-1.422,0.907-1.903
	c0.466-0.481,1.072-0.722,1.818-0.722l0.54,0.046L109.034,47.986z M111.759,56.408V48.48h2.208v-0.425h-2.208v-1.374
	c0-0.643,0.157-1.148,0.471-1.513c0.314-0.365,0.749-0.548,1.305-0.548c0.195,0,0.356,0.009,0.482,0.027
	c0.126,0.018,0.271,0.048,0.436,0.089l0.062-0.401c-0.154-0.046-0.315-0.08-0.482-0.1c-0.167-0.021-0.336-0.031-0.506-0.031
	c-0.69,0-1.226,0.216-1.61,0.648c-0.383,0.432-0.575,1.042-0.575,1.829v1.374h-1.451v0.425h1.451v7.928H111.759z M121.346,56.408
	h0.347v-3.026c0-0.082,0.002-0.154,0.008-0.216c0.005-0.062,0.008-0.126,0.008-0.193h-0.015v-4.917h-0.425v5.836
	c-0.139,0.679-0.441,1.226-0.907,1.64c-0.466,0.414-1.123,0.621-1.972,0.621c-0.71,0-1.274-0.27-1.69-0.811
	c-0.417-0.54-0.625-1.377-0.625-2.509v-4.778h-0.417v4.763c0,1.281,0.243,2.227,0.73,2.837c0.486,0.61,1.159,0.915,2.019,0.915
	c0.69,0,1.276-0.143,1.76-0.428c0.484-0.286,0.857-0.686,1.119-1.2L121.346,56.408z M124.859,44.366h-0.417v12.042h0.417V44.366z
	 M130.725,52.394c0,1.23,0.34,2.234,1.019,3.01c0.679,0.777,1.562,1.166,2.648,1.166c1.075,0,1.952-0.388,2.628-1.166
	c0.677-0.777,1.015-1.781,1.015-3.01v-0.324c0-1.225-0.338-2.226-1.015-3.003c-0.677-0.777-1.558-1.166-2.644-1.166
	c-1.081,0-1.959,0.389-2.636,1.166c-0.677,0.777-1.015,1.778-1.015,3.003V52.394z M131.142,52.069c0-1.024,0.293-1.905,0.88-2.644
	c0.587-0.738,1.371-1.108,2.354-1.108c0.978,0,1.763,0.369,2.354,1.108c0.592,0.738,0.888,1.62,0.888,2.644v0.324
	c0,1.045-0.293,1.932-0.88,2.663c-0.587,0.731-1.369,1.096-2.347,1.096c-0.993,0-1.783-0.364-2.37-1.092
	c-0.587-0.728-0.88-1.617-0.88-2.667V52.069z M143.763,47.986c-0.072-0.021-0.158-0.04-0.259-0.058
	c-0.1-0.018-0.21-0.027-0.328-0.027c-0.669,0-1.233,0.166-1.691,0.498s-0.803,0.796-1.034,1.393v-0.286l-0.077-1.451h-0.34v8.352
	h0.417v-5.473c0.139-0.787,0.441-1.422,0.907-1.903c0.466-0.481,1.072-0.722,1.818-0.722l0.54,0.046L143.763,47.986z M145.77,55.107
	c-0.504-0.697-0.757-1.602-0.757-2.713v-0.324c0-1.101,0.252-2.002,0.757-2.702c0.504-0.7,1.245-1.05,2.223-1.05
	c0.746,0,1.382,0.217,1.907,0.652c0.525,0.435,0.787,1.061,0.787,1.88h0.355l0.016-0.046c0.021-0.921-0.269-1.635-0.868-2.142
	c-0.6-0.507-1.332-0.76-2.196-0.76c-1.06,0-1.891,0.383-2.493,1.15c-0.602,0.767-0.903,1.773-0.903,3.018v0.324
	c0,1.25,0.302,2.259,0.907,3.026c0.605,0.767,1.44,1.15,2.505,1.15c0.813,0,1.53-0.243,2.15-0.729
	c0.62-0.486,0.92-1.139,0.899-1.957l-0.016-0.046h-0.355c0,0.772-0.27,1.351-0.81,1.737s-1.163,0.579-1.868,0.579
	C147.021,56.153,146.274,55.804,145.77,55.107z M153.613,44.366h-0.417v7.279c-0.01,0.072-0.015,0.144-0.015,0.216
	c0,0.072,0,0.162,0,0.27h0.015v4.277h0.417v-5.311c0.134-0.813,0.441-1.479,0.922-1.999c0.481-0.52,1.164-0.78,2.05-0.78
	c0.674,0,1.213,0.225,1.617,0.675c0.404,0.45,0.606,1.223,0.606,2.32v5.095h0.425v-5.079c0-1.184-0.225-2.051-0.676-2.601
	c-0.45-0.551-1.11-0.826-1.98-0.826c-0.715,0-1.323,0.166-1.822,0.498c-0.499,0.332-0.88,0.796-1.142,1.393V44.366z M166.427,56.257
	c0.463-0.208,0.841-0.475,1.135-0.799l-0.224-0.324c-0.288,0.309-0.663,0.556-1.123,0.741c-0.461,0.185-0.941,0.278-1.44,0.278
	c-0.906,0-1.647-0.346-2.223-1.038c-0.576-0.692-0.864-1.548-0.864-2.567v-0.494v-0.1h6.168v-0.641c0-1.055-0.275-1.887-0.826-2.497
	c-0.551-0.61-1.289-0.915-2.215-0.915c-1.019,0-1.864,0.39-2.536,1.169c-0.672,0.78-1.007,1.774-1.007,2.984v0.494
	c0,1.158,0.338,2.118,1.015,2.879c0.677,0.762,1.506,1.142,2.49,1.142C165.413,56.57,165.964,56.465,166.427,56.257z
	 M166.736,49.155c0.468,0.558,0.702,1.267,0.702,2.127v0.255h-5.666l-0.023-0.046c0.072-0.916,0.385-1.674,0.938-2.273
	c0.553-0.599,1.262-0.899,2.127-0.899C165.627,48.318,166.267,48.597,166.736,49.155z M174.308,55.612
	c-0.453,0.36-1.065,0.54-1.837,0.54c-0.715,0-1.335-0.147-1.86-0.44c-0.525-0.293-0.808-0.769-0.849-1.428h-0.34l-0.016,0.046
	c-0.036,0.623,0.223,1.152,0.776,1.586c0.553,0.435,1.316,0.652,2.289,0.652c0.885,0,1.595-0.203,2.13-0.61
	c0.535-0.406,0.803-0.937,0.803-1.59c0-0.669-0.241-1.19-0.722-1.563c-0.481-0.373-1.188-0.668-2.119-0.884
	c-1.009-0.232-1.683-0.502-2.023-0.81c-0.34-0.309-0.509-0.682-0.509-1.119c0-0.443,0.201-0.832,0.602-1.17
	c0.401-0.337,0.993-0.506,1.776-0.506c0.787,0,1.411,0.192,1.872,0.575c0.461,0.383,0.691,0.848,0.691,1.393h0.355l0.015-0.046
	c0.026-0.695-0.227-1.258-0.756-1.691c-0.53-0.432-1.256-0.648-2.177-0.648c-0.854,0-1.534,0.202-2.038,0.606
	c-0.504,0.404-0.756,0.905-0.756,1.501c0,0.654,0.223,1.146,0.668,1.478c0.445,0.332,1.164,0.603,2.157,0.814
	c0.942,0.206,1.602,0.49,1.98,0.853c0.378,0.363,0.567,0.766,0.567,1.208C174.988,54.836,174.761,55.252,174.308,55.612z
	 M178.176,45.801v2.254h-1.544v0.425h1.544v5.774c0,0.813,0.145,1.402,0.436,1.768c0.291,0.365,0.717,0.548,1.277,0.548
	c0.175,0,0.332-0.008,0.471-0.023c0.139-0.016,0.273-0.044,0.401-0.085l-0.077-0.378c-0.19,0.026-0.34,0.044-0.448,0.054
	c-0.108,0.01-0.232,0.016-0.37,0.016c-0.381,0-0.687-0.145-0.919-0.436c-0.232-0.291-0.347-0.778-0.347-1.463V48.48h2.053v-0.425
	H178.6v-2.254H178.176z M186.35,47.986c-0.072-0.021-0.158-0.04-0.259-0.058c-0.1-0.018-0.21-0.027-0.328-0.027
	c-0.669,0-1.233,0.166-1.69,0.498c-0.458,0.332-0.803,0.796-1.034,1.393v-0.286l-0.077-1.451h-0.34v8.352h0.417v-5.473
	c0.139-0.787,0.441-1.422,0.907-1.903c0.466-0.481,1.072-0.722,1.818-0.722l0.54,0.046L186.35,47.986z M193.151,54.995
	c0,0.211,0.012,0.408,0.035,0.59c0.023,0.183,0.068,0.457,0.135,0.822h0.463c-0.077-0.273-0.133-0.548-0.166-0.826
	c-0.034-0.278-0.05-0.564-0.05-0.857v-4.184c0-0.854-0.27-1.508-0.81-1.961c-0.54-0.453-1.258-0.679-2.154-0.679
	c-0.88,0-1.588,0.225-2.123,0.675c-0.535,0.45-0.787,1-0.757,1.648l0.015,0.039l0.347,0.016c0-0.576,0.23-1.047,0.691-1.413
	c0.461-0.365,1.069-0.548,1.826-0.548c0.808,0,1.434,0.194,1.88,0.583c0.445,0.389,0.668,0.93,0.668,1.625v1.22h-2.385
	c-0.993,0-1.821,0.237-2.482,0.71c-0.661,0.474-0.992,1.06-0.992,1.76c0,0.721,0.221,1.293,0.664,1.718
	c0.442,0.424,1.052,0.637,1.829,0.637c0.813,0,1.505-0.158,2.077-0.475c0.571-0.317,1.001-0.727,1.289-1.231V54.995z
	 M188.276,55.624c-0.378-0.358-0.567-0.817-0.567-1.378c0-0.587,0.297-1.079,0.892-1.478c0.594-0.399,1.324-0.598,2.188-0.598h2.362
	v1.876c-0.268,0.679-0.688,1.202-1.262,1.567c-0.574,0.365-1.275,0.548-2.104,0.548C189.157,56.161,188.655,55.982,188.276,55.624z
	 M196.694,45.801v2.254h-1.544v0.425h1.544v5.774c0,0.813,0.145,1.402,0.436,1.768c0.291,0.365,0.717,0.548,1.277,0.548
	c0.175,0,0.332-0.008,0.471-0.023c0.139-0.016,0.273-0.044,0.401-0.085l-0.077-0.378c-0.19,0.026-0.34,0.044-0.448,0.054
	c-0.108,0.01-0.231,0.016-0.37,0.016c-0.381,0-0.687-0.145-0.919-0.436c-0.232-0.291-0.347-0.778-0.347-1.463V48.48h2.053v-0.425
	h-2.053v-2.254H196.694z M201.658,48.055h-0.417v8.352h0.417V48.055z M201.658,44.366h-0.417v1.065h0.417V44.366z M203.742,52.394
	c0,1.23,0.34,2.234,1.019,3.01c0.679,0.777,1.562,1.166,2.648,1.166c1.076,0,1.952-0.388,2.628-1.166
	c0.677-0.777,1.015-1.781,1.015-3.01v-0.324c0-1.225-0.338-2.226-1.015-3.003c-0.677-0.777-1.558-1.166-2.644-1.166
	c-1.081,0-1.959,0.389-2.636,1.166c-0.677,0.777-1.015,1.778-1.015,3.003V52.394z M204.159,52.069c0-1.024,0.293-1.905,0.88-2.644
	c0.587-0.738,1.371-1.108,2.354-1.108c0.978,0,1.763,0.369,2.354,1.108c0.592,0.738,0.888,1.62,0.888,2.644v0.324
	c0,1.045-0.293,1.932-0.88,2.663c-0.587,0.731-1.369,1.096-2.347,1.096c-0.993,0-1.783-0.364-2.37-1.092
	c-0.587-0.728-0.88-1.617-0.88-2.667V52.069z M213.051,48.055v3.474c-0.01,0.103-0.017,0.205-0.019,0.305
	c-0.003,0.1-0.004,0.199-0.004,0.297h0.023v4.277h0.417V51.05c0.129-0.803,0.424-1.459,0.888-1.968
	c0.463-0.509,1.132-0.764,2.007-0.764c0.71,0,1.272,0.237,1.687,0.71c0.414,0.474,0.621,1.289,0.621,2.447v4.933h0.417V51.49
	c0-1.245-0.228-2.155-0.683-2.729c-0.456-0.574-1.139-0.861-2.05-0.861c-0.705,0-1.299,0.161-1.783,0.482
	c-0.484,0.322-0.854,0.773-1.112,1.355l-0.054-1.683H213.051z"/>
</svg>
